<?xml version="1.0" encoding="UTF-8" standalone="no"?>
<!DOCTYPE svg PUBLIC "-//W3C//DTD SVG 1.1//EN" "http://www.w3.org/Graphics/SVG/1.1/DTD/svg11.dtd">
<svg width="100%" height="100%" viewBox="0 0 1016 275" version="1.1" xmlns="http://www.w3.org/2000/svg" xmlns:xlink="http://www.w3.org/1999/xlink" xml:space="preserve" xmlns:serif="http://www.serif.com/" style="fill-rule:evenodd;clip-rule:evenodd;stroke-linejoin:round;stroke-miterlimit:2;" data-fill-darkmode="1">
    <g transform="matrix(1,0,0,1,-132.11,-202.731)">
        <g transform="matrix(2.06213,0,0,2.06213,-692.741,-340.501)">
            <path d="M486.474,378.625L486.523,395.612C486.523,396.249 486.268,396.567 485.759,396.567L464.176,396.567C463.667,396.567 463.412,396.249 463.412,395.612L463.402,390.445L486.474,378.625ZM423.138,381.632L423.111,395.612C423.111,396.249 422.856,396.567 422.347,396.567L400.764,396.567C400.255,396.567 400,396.249 400,395.612L400.027,386.279L423.138,381.632ZM525.819,360.987L525.869,395.612C525.869,396.249 525.614,396.567 525.105,396.567L503.522,396.567C502.885,396.567 502.567,396.249 502.567,395.612L502.604,370.362L517.728,362.613L525.819,360.987ZM656.11,381.266L656.131,395.612C656.131,396.249 655.876,396.567 655.367,396.567L633.784,396.567C633.147,396.567 632.829,396.249 632.829,395.612L632.833,393.191L656.11,381.266ZM852.425,295.316L852.288,373.074L891.634,373.074C892.271,373.074 892.589,373.392 892.589,374.029L892.589,395.612C892.589,396.249 892.271,396.567 891.634,396.567L829.941,396.567C829.432,396.567 829.177,396.249 829.177,395.612L829.316,299.962L852.425,295.316ZM617.74,342.504L617.74,356.266C617.74,363.651 615.957,370.368 612.392,376.416C608.827,382.465 604.052,387.272 598.067,390.837C592.082,394.402 585.334,396.249 577.821,396.376L543.632,396.567C542.995,396.567 542.677,396.249 542.677,395.612L542.788,357.575L566.024,352.903L565.979,373.074L577.821,373.074C582.532,373.074 586.512,371.419 589.759,368.108C593.006,364.797 594.629,360.85 594.629,356.266L594.629,347.151L617.74,342.504ZM801.736,306.66L817.144,395.612C817.271,396.249 817.017,396.567 816.38,396.567L795.179,396.567C794.67,396.567 794.351,396.249 794.224,395.612L792.123,381.669L766.147,381.669L764.046,395.612C763.919,396.249 763.6,396.567 763.091,396.567L741.89,396.567C741.381,396.567 741.126,396.249 741.126,395.612L752.642,331.811L776.648,319.513L769.967,361.232L788.303,361.232L781.829,316.859L801.736,306.66ZM728.588,344.134L718.397,395.612C718.27,396.249 717.951,396.567 717.442,396.567L694.331,396.567C693.822,396.567 693.503,396.249 693.376,395.612L687.286,365.294L728.588,344.134ZM486.204,286.015L486.43,363.807L463.358,368.195L463.221,298.202L443.166,327.234L423.302,298.202L423.15,375.84L400.045,380.234L400.303,291.617L441.606,287.345L443.166,289.607L444.965,286.997L481.755,283.191L486.204,286.015ZM656.091,368.427L632.853,379.338L632.911,339.454L656.042,334.803L656.091,368.427ZM463.379,378.708L463.369,373.543L481.638,369.87L463.379,378.708ZM525.714,288.932L525.8,348.493L502.619,359.714L502.734,281.021L516.39,279.609L525.714,288.932ZM704.847,345.535L685.172,354.773L680.186,329.948L701.297,325.703L704.847,345.535ZM566.033,348.671L542.801,353.088L542.81,349.763L566.057,337.854L566.033,348.671ZM730.715,333.389L707.289,344.388L710.89,323.774L733.519,319.224L730.715,333.389ZM617.74,338.839L594.629,343.233L594.629,323.216L617.74,311.376L617.74,338.839ZM602.231,270.729C606.417,273.835 609.867,277.677 612.583,282.253C616.021,288.047 617.74,294.446 617.74,301.449L617.74,303.99L594.629,315.177L594.629,301.258C594.629,297.183 593.133,293.65 590.141,290.657C587.148,287.665 583.615,286.233 579.54,286.36L566.17,286.551L566.076,328.997L542.838,340.246L543.023,276.854L602.231,270.729ZM656.038,331.556L632.916,335.953L632.963,303.577L655.98,291.785L656.038,331.556ZM695.387,292.698L700.82,323.041L679.609,327.074L670.977,284.102L681.434,278.745L695.387,292.698ZM777.98,311.197L754.361,322.287L755.719,314.761L778.131,310.254L777.98,311.197ZM724.532,263.631L741.22,280.32L734.013,316.729L711.369,321.035L721.262,264.395C721.389,263.886 721.708,263.631 722.217,263.631L724.532,263.631ZM779.631,263.631L797.352,281.352L800.676,300.541L788.105,306.444L780.519,307.886L780.472,307.561L779.326,300.494L778.562,307.561L778.447,308.28L756.123,312.525L764.81,264.395C764.937,263.886 765.256,263.631 765.765,263.631L779.631,263.631ZM780.809,309.869L780.787,309.72L781.38,309.601L780.809,309.869ZM852.447,282.738L852.427,294.213L829.318,298.607L829.327,292.524L851.086,281.377L852.447,282.738ZM633.015,267.544L632.973,296.616L654.969,285.969L636.213,267.213L633.015,267.544ZM400.314,287.717L400.382,264.395C400.382,263.886 400.637,263.631 401.146,263.631L424.448,263.631C424.957,263.631 425.403,263.886 425.785,264.395L439.341,284.058L400.314,287.717ZM848.021,278.312L829.335,287.085L829.368,264.586C829.368,263.949 829.686,263.631 830.323,263.631L833.34,263.631L848.021,278.312ZM477.486,280.482L447.52,283.291L457.988,268.107L477.486,280.482ZM677.67,274.981L669.9,278.742L667.018,264.395C667.011,264.366 667.005,264.338 667,264.31L677.67,274.981ZM513.853,277.072L502.738,278.114L502.756,265.974L513.853,277.072ZM543.03,274.337L543.059,264.395C543.059,263.886 543.314,263.631 543.823,263.631L579.54,263.44C586.543,263.313 592.942,264.968 598.736,268.406C599.074,268.607 599.408,268.811 599.738,269.02L543.03,274.337ZM634.739,265.739L633.018,265.9L633.02,264.395C633.02,264.27 633.035,264.16 633.066,264.066L634.739,265.739ZM744.352,263.923C744.415,264.043 744.422,264.201 744.373,264.395L744.352,264.502L744.352,263.923Z" style="fill-rule:nonzero;"/>
        </g>
    </g>
</svg>
